<svg width="425" height="197" viewBox="0 0 425 197" fill="none" xmlns="http://www.w3.org/2000/svg">
<path d="M73.9844 170H61.7969V153.5H18.9531V170H6.76562V136.391C6.76562 131.484 7.60938 126.969 9.29688 122.844C10.9844 118.719 13.3281 115.172 16.3281 112.203C19.3281 109.234 22.875 106.922 26.9688 105.266C31.0625 103.609 35.5312 102.781 40.375 102.781H67.8438C68.6875 102.781 69.4844 102.938 70.2344 103.25C70.9844 103.562 71.6406 104 72.2031 104.562C72.7656 105.125 73.2031 105.781 73.5156 106.531C73.8281 107.281 73.9844 108.078 73.9844 108.922V170ZM18.9531 141.312H61.7969V114.969H40.375C40 114.969 39.2031 115.031 37.9844 115.156C36.7969 115.25 35.4062 115.516 33.8125 115.953C32.25 116.391 30.5938 117.062 28.8438 117.969C27.0938 118.875 25.4844 120.125 24.0156 121.719C22.5469 123.312 21.3281 125.312 20.3594 127.719C19.4219 130.094 18.9531 132.984 18.9531 136.391V141.312ZM99.2031 108.922H87.0156V97.9062H99.2031V108.922ZM99.2031 170H87.0156V119.328H99.2031V170ZM155.266 131.516H127.844C126.188 131.516 124.938 131.938 124.094 132.781C123.25 133.594 122.828 134.797 122.828 136.391V170H110.641V136.391C110.641 134.297 110.906 132.422 111.438 130.766C111.969 129.109 112.672 127.656 113.547 126.406C114.453 125.125 115.484 124.047 116.641 123.172C117.797 122.266 119 121.531 120.25 120.969C121.531 120.406 122.812 120 124.094 119.75C125.406 119.469 126.625 119.328 127.75 119.328H155.266V131.516Z" fill="#D22E2E"/>
<path d="M229.281 150.219C229.281 152.625 228.969 154.797 228.344 156.734C227.75 158.641 226.953 160.328 225.953 161.797C224.953 163.266 223.781 164.516 222.438 165.547C221.094 166.578 219.703 167.422 218.266 168.078C216.828 168.734 215.359 169.219 213.859 169.531C212.391 169.844 211 170 209.688 170H162.672V157.812H209.688C212.031 157.812 213.844 157.125 215.125 155.75C216.438 154.375 217.094 152.531 217.094 150.219C217.094 149.094 216.922 148.062 216.578 147.125C216.234 146.188 215.734 145.375 215.078 144.688C214.453 144 213.672 143.469 212.734 143.094C211.828 142.719 210.812 142.531 209.688 142.531H181.656C179.688 142.531 177.562 142.188 175.281 141.5C173 140.781 170.875 139.641 168.906 138.078C166.969 136.516 165.344 134.469 164.031 131.938C162.75 129.406 162.109 126.312 162.109 122.656C162.109 119 162.75 115.922 164.031 113.422C165.344 110.891 166.969 108.844 168.906 107.281C170.875 105.688 173 104.547 175.281 103.859C177.562 103.141 179.688 102.781 181.656 102.781H223.141V114.969H181.656C179.344 114.969 177.531 115.672 176.219 117.078C174.938 118.484 174.297 120.344 174.297 122.656C174.297 125 174.938 126.859 176.219 128.234C177.531 129.578 179.344 130.25 181.656 130.25H209.688H209.781C211.094 130.281 212.484 130.469 213.953 130.812C215.422 131.125 216.875 131.625 218.312 132.312C219.781 133 221.172 133.875 222.484 134.938C223.797 135.969 224.953 137.219 225.953 138.688C226.984 140.156 227.797 141.844 228.391 143.75C228.984 145.656 229.281 147.812 229.281 150.219ZM290.359 153.219C290.359 154.906 290.062 156.734 289.469 158.703C288.875 160.641 287.906 162.453 286.562 164.141C285.25 165.797 283.516 167.188 281.359 168.312C279.234 169.438 276.641 170 273.578 170H251.594C249.906 170 248.078 169.703 246.109 169.109C244.172 168.516 242.359 167.562 240.672 166.25C239.016 164.906 237.625 163.172 236.5 161.047C235.375 158.891 234.812 156.281 234.812 153.219C234.812 151.531 235.109 149.703 235.703 147.734C236.297 145.766 237.25 143.953 238.562 142.297C239.906 140.609 241.641 139.203 243.766 138.078C245.922 136.953 248.531 136.391 251.594 136.391H273.578V148.016H251.594C249.938 148.016 248.656 148.531 247.75 149.562C246.844 150.562 246.391 151.812 246.391 153.312C246.391 154.906 246.906 156.156 247.938 157.062C249 157.938 250.25 158.375 251.688 158.375H273.578C275.234 158.375 276.516 157.875 277.422 156.875C278.328 155.875 278.781 154.625 278.781 153.125V136.109C278.781 134.516 278.281 133.25 277.281 132.312C276.312 131.375 275.078 130.906 273.578 130.906H246.812V119.328H273.578C275.266 119.328 277.078 119.625 279.016 120.219C280.984 120.812 282.797 121.781 284.453 123.125C286.141 124.438 287.547 126.172 288.672 128.328C289.797 130.453 290.359 133.047 290.359 136.109V153.219ZM355.891 174.875C355.891 176.969 355.625 178.844 355.094 180.5C354.562 182.188 353.859 183.656 352.984 184.906C352.109 186.188 351.094 187.266 349.938 188.141C348.781 189.047 347.562 189.781 346.281 190.344C345.031 190.906 343.75 191.312 342.438 191.562C341.156 191.844 339.938 191.984 338.781 191.984H316.797V179.797H338.781C340.438 179.797 341.672 179.375 342.484 178.531C343.297 177.688 343.703 176.469 343.703 174.875V136.391C343.703 134.797 343.297 133.594 342.484 132.781C341.672 131.938 340.438 131.516 338.781 131.516H316.797C315.297 131.516 314.109 131.984 313.234 132.922C312.359 133.828 311.922 134.984 311.922 136.391V152.891C311.922 154.484 312.344 155.703 313.188 156.547C314.031 157.391 315.266 157.812 316.891 157.812H338.781V170H316.797C315.641 170 314.422 169.875 313.141 169.625C311.859 169.344 310.578 168.922 309.297 168.359C308.047 167.797 306.844 167.078 305.688 166.203C304.531 165.297 303.516 164.219 302.641 162.969C301.766 161.688 301.062 160.219 300.531 158.562C300 156.875 299.734 154.984 299.734 152.891V136.391C299.734 135.234 299.859 134.016 300.109 132.734C300.391 131.453 300.812 130.188 301.375 128.938C301.938 127.656 302.656 126.438 303.531 125.281C304.438 124.125 305.516 123.109 306.766 122.234C308.047 121.359 309.516 120.656 311.172 120.125C312.828 119.594 314.703 119.328 316.797 119.328H338.781C339.938 119.328 341.156 119.469 342.438 119.75C343.75 120 345.031 120.406 346.281 120.969C347.562 121.531 348.781 122.266 349.938 123.172C351.094 124.047 352.109 125.125 352.984 126.406C353.859 127.656 354.562 129.109 355.094 130.766C355.625 132.422 355.891 134.297 355.891 136.391V174.875ZM421.562 136.109C421.562 137.797 421.266 139.625 420.672 141.594C420.078 143.531 419.109 145.344 417.766 147.031C416.453 148.688 414.719 150.078 412.562 151.203C410.438 152.328 407.844 152.891 404.781 152.891H382.797V141.312H404.781C406.438 141.312 407.719 140.812 408.625 139.812C409.531 138.781 409.984 137.516 409.984 136.016C409.984 134.422 409.469 133.172 408.438 132.266C407.438 131.359 406.219 130.906 404.781 130.906H382.797C381.141 130.906 379.859 131.422 378.953 132.453C378.047 133.453 377.594 134.703 377.594 136.203V153.219C377.594 154.844 378.094 156.109 379.094 157.016C380.125 157.922 381.391 158.375 382.891 158.375H404.781V170H382.797C381.109 170 379.281 169.703 377.312 169.109C375.375 168.516 373.562 167.562 371.875 166.25C370.219 164.906 368.828 163.172 367.703 161.047C366.578 158.891 366.016 156.281 366.016 153.219V136.109C366.016 134.422 366.312 132.609 366.906 130.672C367.5 128.703 368.453 126.891 369.766 125.234C371.109 123.547 372.844 122.141 374.969 121.016C377.125 119.891 379.734 119.328 382.797 119.328H404.781C406.469 119.328 408.281 119.625 410.219 120.219C412.188 120.812 414 121.781 415.656 123.125C417.344 124.438 418.75 126.172 419.875 128.328C421 130.453 421.562 133.047 421.562 136.109Z" fill="#F6B52D"/>
<g clip-path="url(#clip0_8_24)">
<path d="M219.876 70.2097C231.163 63.2449 237.583 55.748 250.045 52.1863C252.891 82.7617 282.605 122.164 282.605 122.164C270.373 116.096 256.134 129.189 240.351 115.448C226.015 102.991 219.125 74.84 219.876 70.2097Z" fill="#700E17"/>
<path d="M288.141 68.7206C288.141 68.7206 308.133 100.416 364 127.966C364 127.966 337.51 137.759 319.365 122.16C297.936 103.738 285.834 137.441 256.322 121.834C213.705 99.2917 228.359 59.1167 288.141 68.7206Z" fill="#891723"/>
<path d="M287.726 70.377C305.158 68.3859 347.835 111.642 347.835 111.642C346.596 111.5 323.082 97.9657 294.413 117.264C279.248 127.464 261.655 123.207 250.612 114.689C215.538 87.6323 231.84 63.7127 287.726 70.377Z" fill="#701829"/>
<path d="M219.821 70.0337C223.689 60.3397 234.769 56.4432 234.769 56.4432C244.537 48.0624 254.909 41.8786 261.674 38.2654C244.284 36.1884 234.645 36.0897 226.448 39.2738C243.966 20.4351 274.403 0 274.403 0C274.403 0 263.866 21.538 274.403 48.7018C278.617 59.5544 319.139 99.2016 319.139 99.2016C273.298 97.4851 247.867 89.4518 234.221 82.2467C221.29 75.4193 218.932 69.33 219.821 70.0337Z" fill="#E63C35"/>
<path d="M222.096 42.0546C226.116 41.5225 231.532 40.2823 234.221 42.8313C238.108 46.5218 235.981 56.4604 235.981 56.4604C235.801 56.6149 213 51.71 213 51.71C218.807 44.8096 222.096 42.0546 222.096 42.0546Z" fill="#F6B52D"/>
<path d="M265.133 39.5742C256.322 43.0072 249.134 45.1529 234.314 59.4643C235.562 41.4409 235.893 44.1444 222.552 42.0932C223.763 40.338 243.768 23.6922 265.133 39.5742Z" fill="#231F20"/>
<path d="M287.726 68.2314C305.158 66.2445 347.835 111.625 347.835 111.625C346.596 111.483 323.082 95.8201 294.413 115.118C281.118 124.057 259.786 119.62 250.612 112.543C215.538 85.5081 231.84 61.5885 287.726 68.2314Z" fill="#D22E2E"/>
</g>
<defs>
<clipPath id="clip0_8_24">
<rect width="151" height="131" fill="white" transform="translate(213)"/>
</clipPath>
</defs>
</svg>
