<svg width="81" height="83" viewBox="0 0 81 83" fill="none" xmlns="http://www.w3.org/2000/svg">
<mask id="mask0_9_15" style="mask-type:luminance" maskUnits="userSpaceOnUse" x="0" y="0" width="81" height="83">
<path d="M81 0H0V83H81V0Z" fill="white"/>
</mask>
<g mask="url(#mask0_9_15)">
<path d="M3.68845 34.3007C9.74306 30.8981 13.1869 27.2355 19.8718 25.4954C21.3985 40.433 37.3378 59.6829 37.3378 59.6829C30.7762 56.7184 23.1381 63.1149 14.6717 56.4018C6.98155 50.3159 3.28559 36.5628 3.68845 34.3007Z" fill="#700E17"/>
<path d="M40.3074 33.5733C40.3074 33.5733 51.0316 49.058 81 62.5175C81 62.5175 66.7901 67.3018 57.0567 59.681C45.5617 50.6809 39.0699 67.1465 23.239 59.5217C0.378174 48.5087 8.23893 28.8813 40.3074 33.5733Z" fill="#891723"/>
<path d="M40.0848 34.3825C49.4358 33.4098 72.3287 54.5424 72.3287 54.5424C71.6641 54.473 59.0506 47.8609 43.6719 57.289C35.537 62.2722 26.0997 60.1925 20.176 56.031C1.36144 42.8125 10.1062 31.1267 40.0848 34.3825Z" fill="#701829"/>
<path d="M3.65895 34.2148C5.73383 29.4788 11.6774 27.5752 11.6774 27.5752C16.9172 23.4808 22.481 20.4597 26.1099 18.6945C16.7815 17.6798 11.6109 17.6315 7.21383 19.1871C16.6109 9.98352 32.938 0 32.938 0C32.938 0 27.2857 10.5223 32.938 23.7931C35.1985 29.0952 56.9355 48.4647 56.9355 48.4647C32.3453 47.6261 18.7035 43.7015 11.3834 40.1814C4.44695 36.8459 3.18206 33.871 3.65895 34.2148Z" fill="#E63C35"/>
<path d="M4.87931 20.5457C7.03574 20.2857 9.94101 19.6798 11.3835 20.9251C13.4685 22.7281 12.3276 27.5836 12.3276 27.5836C12.231 27.6591 3.8147e-06 25.2628 3.8147e-06 25.2628C3.11502 21.8916 4.87931 20.5457 4.87931 20.5457Z" fill="#F6B52D"/>
<path d="M27.9654 19.3339C23.239 21.0111 19.3831 22.0594 11.4333 29.0512C12.1028 20.2459 12.2804 21.5667 5.12392 20.5646C5.77353 19.7071 16.5047 11.5748 27.9654 19.3339Z" fill="#231F20"/>
<path d="M40.0848 33.3343C49.4358 32.3636 72.3287 54.5341 72.3287 54.5341C71.6641 54.4647 59.0506 46.8127 43.6719 56.2406C36.5401 60.6077 25.0971 58.4401 20.176 54.9826C1.36144 41.7748 10.1062 30.0889 40.0848 33.3343Z" fill="#D22E2E"/>
</g>
</svg>
